<svg xmlns="http://www.w3.org/2000/svg" width="512" height="512" viewBox="0 0 512 512" role="img" aria-label="Tool icon">
  <defs>
    <linearGradient id="g" x1="0" y1="0" x2="1" y2="1">
      <stop offset="0" stop-color="#111827"/>
      <stop offset="1" stop-color="#3b82f6"/>
    </linearGradient>
  </defs>
  <rect width="512" height="512" rx="96" fill="url(#g)"/>
  <g fill="#fff" opacity="0.95">
    <path d="M337 150c-18 0-35 7-48 20l-8 8-58-58-23 23 58 58-8 8c-13 13-20 30-20 48 0 9 2 18 5 26l-90 90c-10 10-10 26 0 36l22 22c10 10 26 10 36 0l90-90c8 3 17 5 26 5 18 0 35-7 48-20 27-27 27-71 0-98-13-13-30-20-48-20zm-22 106-22-22 44-44 22 22-44 44z"/>
  </g>
  <text x="256" y="452" text-anchor="middle" font-family="Inter,Segoe UI,Roboto,Arial,sans-serif" font-size="40" fill="#ffffff" opacity="0.95">Tool</text>
</svg>
